<svg width="195" height="104" viewBox="0 0 195 104" fill="none" xmlns="http://www.w3.org/2000/svg">
<g filter="url(#filter0_d_362_576)">
<rect x="44" y="20" width="131" height="56" rx="28" fill="white" shape-rendering="crispEdges"/>
<path d="M110.38 44L106.503 33.9367H103.817L99.9246 44H102.278L102.912 42.2649H107.408L108.042 44H110.38ZM106.82 40.4092H103.485L105.16 35.7924L106.82 40.4092ZM113.18 44V33.9367H111.264V44H113.18ZM123.514 44L125.732 36.7128H123.74L122.383 41.6162L120.783 36.7128H119.078L117.479 41.6162L116.121 36.7128H114.13L116.348 44H118.4L119.938 39.0362L121.477 44H123.514ZM132.967 44V39.2927C132.967 37.1956 131.443 36.5317 129.784 36.5317C128.637 36.5317 127.491 36.8938 126.6 37.6784L127.325 38.9608C127.943 38.3875 128.667 38.1008 129.452 38.1008C130.417 38.1008 131.051 38.5836 131.051 39.3229V40.3337C130.568 39.7453 129.708 39.4436 128.743 39.4436C127.581 39.4436 126.208 40.0622 126.208 41.7671C126.208 43.3965 127.581 44.181 128.743 44.181C129.693 44.181 130.553 43.834 131.051 43.2456V44H132.967ZM131.051 42.2499C130.734 42.6723 130.131 42.8835 129.512 42.8835C128.758 42.8835 128.139 42.4913 128.139 41.8123C128.139 41.1183 128.758 40.7109 129.512 40.7109C130.131 40.7109 130.734 40.9222 131.051 41.3446V42.2499ZM134.611 46.8515C134.853 46.9119 135.336 46.9571 135.562 46.9571C136.814 46.927 137.78 46.5649 138.323 45.1919L141.748 36.7128H139.681L137.78 41.7821L135.879 36.7128H133.827L136.784 44.1056L136.512 44.7242C136.331 45.1165 135.999 45.2523 135.501 45.2523C135.32 45.2523 135.064 45.207 134.898 45.1316L134.611 46.8515ZM141.969 43.0495C142.739 43.7586 143.961 44.181 145.228 44.181C147.25 44.181 148.382 43.1853 148.382 41.8425C148.382 40.032 146.707 39.7001 145.455 39.4587C144.64 39.2927 144.067 39.1268 144.067 38.6741C144.067 38.2517 144.519 37.9952 145.213 37.9952C146.103 37.9952 146.933 38.3724 147.371 38.8401L148.125 37.5275C147.416 36.9542 146.435 36.5317 145.198 36.5317C143.282 36.5317 142.211 37.6029 142.211 38.825C142.211 40.5601 143.825 40.8618 145.077 41.1032C145.907 41.2692 146.541 41.4502 146.541 41.9632C146.541 42.4158 146.149 42.7025 145.319 42.7025C144.414 42.7025 143.327 42.2046 142.799 41.7067L141.969 43.0495ZM100.302 60.5818C101.252 61.5323 102.64 62.181 104.571 62.181C107.287 62.181 108.6 60.793 108.6 58.9523C108.6 56.7194 106.488 56.2215 104.828 55.8443C103.666 55.5727 102.821 55.3615 102.821 54.6826C102.821 54.0791 103.334 53.6566 104.3 53.6566C105.281 53.6566 106.367 54.0036 107.182 54.758L108.374 53.1889C107.378 52.2686 106.05 51.7858 104.451 51.7858C102.082 51.7858 100.634 53.1437 100.634 54.8184C100.634 57.0664 102.746 57.519 104.39 57.8962C105.552 58.1678 106.427 58.4243 106.427 59.1786C106.427 59.752 105.854 60.3102 104.677 60.3102C103.289 60.3102 102.188 59.6916 101.479 58.9523L100.302 60.5818ZM109.529 58.3488C109.529 60.6874 111.204 62.181 113.422 62.181C114.553 62.181 115.685 61.8491 116.424 61.1702L115.579 59.933C115.112 60.3856 114.312 60.6572 113.633 60.6572C112.396 60.6572 111.657 59.8878 111.536 58.9674H116.952V58.545C116.952 56.1612 115.474 54.5317 113.301 54.5317C111.083 54.5317 109.529 56.2366 109.529 58.3488ZM113.301 56.0555C114.569 56.0555 115.051 56.9759 115.097 57.6699H111.506C111.596 56.9457 112.109 56.0555 113.301 56.0555ZM117.869 58.3488C117.869 60.5969 119.483 62.181 121.731 62.181C123.225 62.181 124.13 61.5323 124.613 60.8534L123.361 59.6916C123.014 60.1744 122.485 60.4762 121.822 60.4762C120.66 60.4762 119.845 59.6162 119.845 58.3488C119.845 57.0815 120.66 56.2366 121.822 56.2366C122.485 56.2366 123.014 56.5233 123.361 57.0211L124.613 55.8594C124.13 55.1805 123.225 54.5317 121.731 54.5317C119.483 54.5317 117.869 56.1159 117.869 58.3488ZM132.7 62V54.7128H130.784V59.6464C130.452 60.0688 129.864 60.4762 129.124 60.4762C128.31 60.4762 127.782 60.1442 127.782 59.1334V54.7128H125.865V59.8878C125.865 61.306 126.62 62.181 128.219 62.181C129.411 62.181 130.286 61.6379 130.784 61.0797V62H132.7ZM136.519 62V57.1871C136.836 56.7194 137.68 56.3724 138.314 56.3724C138.525 56.3724 138.706 56.3875 138.842 56.4176V54.5468C137.937 54.5468 137.032 55.0598 136.519 55.7085V54.7128H134.603V62H136.519ZM139.572 58.3488C139.572 60.6874 141.246 62.181 143.464 62.181C144.596 62.181 145.727 61.8491 146.467 61.1702L145.622 59.933C145.154 60.3856 144.354 60.6572 143.675 60.6572C142.438 60.6572 141.699 59.8878 141.578 58.9674H146.995V58.545C146.995 56.1612 145.516 54.5317 143.344 54.5317C141.126 54.5317 139.572 56.2366 139.572 58.3488ZM143.344 56.0555C144.611 56.0555 145.094 56.9759 145.139 57.6699H141.548C141.639 56.9457 142.152 56.0555 143.344 56.0555Z" fill="#222222"/>
<circle cx="52" cy="48" r="32" fill="url(#paint0_linear_362_576)"/>
<path d="M39.8204 36.8156L50.5284 32.2531C51.3085 31.9156 52.2264 31.9156 53.0065 32.2531L63.7145 36.8156C64.8159 37.285 65.5349 38.3413 65.5349 39.5003V46.3954C65.5349 54.5375 59.6608 62.1515 51.7674 64C43.8741 62.1515 38 54.5375 38 46.3954V39.5003C38 38.3413 38.719 37.285 39.8204 36.8156Z" fill="white"/>
<path d="M50.8576 52.9317C50.0181 53.799 48.662 53.799 47.8225 52.9205L44.3892 49.3277C43.7972 48.7082 43.808 47.7058 44.4214 47.1089C45.0026 46.5232 45.9282 46.5458 46.4879 47.1314L49.34 50.1161L56.2605 42.8741C56.8417 42.2659 57.778 42.2659 58.3592 42.8741L58.4023 42.9192C58.9835 43.5273 58.9835 44.5185 58.3915 45.1267L50.8576 52.9317Z" fill="#4DB56C"/>
</g>
<defs>
<filter id="filter0_d_362_576" x="0" y="0" width="195" height="104" filterUnits="userSpaceOnUse" color-interpolation-filters="sRGB">
<feFlood flood-opacity="0" result="BackgroundImageFix"/>
<feColorMatrix in="SourceAlpha" type="matrix" values="0 0 0 0 0 0 0 0 0 0 0 0 0 0 0 0 0 0 127 0" result="hardAlpha"/>
<feOffset dy="4"/>
<feGaussianBlur stdDeviation="10"/>
<feComposite in2="hardAlpha" operator="out"/>
<feColorMatrix type="matrix" values="0 0 0 0 0 0 0 0 0 0 0 0 0 0 0 0 0 0 0.1 0"/>
<feBlend mode="normal" in2="BackgroundImageFix" result="effect1_dropShadow_362_576"/>
<feBlend mode="normal" in="SourceGraphic" in2="effect1_dropShadow_362_576" result="shape"/>
</filter>
<linearGradient id="paint0_linear_362_576" x1="20.6723" y1="16" x2="73.6115" y2="87.5868" gradientUnits="userSpaceOnUse">
<stop stop-color="#79E098"/>
<stop offset="1" stop-color="#39A258"/>
</linearGradient>
</defs>
</svg>
