<svg width="209" height="112" viewBox="0 0 209 112" fill="none" xmlns="http://www.w3.org/2000/svg">
<g filter="url(#filter0_d_363_1127)">
<rect x="47" y="22" width="139.733" height="59.7333" rx="29.8667" fill="white" shape-rendering="crispEdges"/>
<path d="M117.807 47.6665L113.671 36.9323H110.806L106.654 47.6665H109.261L109.937 45.848H114.54L115.199 47.6665H117.807ZM113.912 43.8363H110.565L112.238 39.2175L113.912 43.8363ZM120.793 47.6665V36.9323H118.75V47.6665H120.793ZM131.816 47.6665L134.182 39.8934H132.058L130.609 45.1238L128.903 39.8934H127.085L125.379 45.1238L123.93 39.8934H121.806L124.172 47.6665H126.361L128.002 42.3718L129.644 47.6665H131.816ZM141.899 47.6665V42.6454C141.899 40.4084 140.274 39.7003 138.504 39.7003C137.281 39.7003 136.058 40.0866 135.108 40.9234L135.881 42.2913C136.54 41.6798 137.313 41.374 138.15 41.374C139.18 41.374 139.856 41.889 139.856 42.6776V43.7236C139.341 43.1121 138.423 42.7741 137.393 42.7741C136.154 42.7741 134.69 43.4662 134.69 45.2847C134.69 47.0228 136.154 47.8596 137.393 47.8596C138.407 47.8596 139.325 47.4895 139.856 46.8618V47.6665H141.899ZM138.214 46.4756C137.409 46.4756 136.75 46.0572 136.75 45.333C136.75 44.5766 137.409 44.1582 138.214 44.1582C138.874 44.1582 139.518 44.3835 139.856 44.8341V45.7997C139.518 46.2503 138.874 46.4756 138.214 46.4756ZM143.653 50.7081C143.911 50.7725 144.426 50.8208 144.667 50.8208C146.003 50.7886 147.033 50.4024 147.612 48.9379L151.265 39.8934H149.06L147.033 45.3008L145.005 39.8934H142.816L145.971 47.7792L145.681 48.439C145.488 48.8574 145.134 49.0022 144.603 49.0022C144.41 49.0022 144.136 48.954 143.959 48.8735L143.653 50.7081ZM154.978 47.8596C157.134 47.8596 158.341 46.7814 158.341 45.3652C158.341 42.227 153.739 43.1926 153.739 42.0339C153.739 41.5993 154.222 41.2614 154.962 41.2614C155.911 41.2614 156.796 41.6637 157.263 42.1626L158.084 40.7625C157.311 40.1509 156.265 39.7003 154.946 39.7003C152.902 39.7003 151.759 40.843 151.759 42.1465C151.759 45.2042 156.378 44.1582 156.378 45.4456C156.378 45.9284 155.96 46.2825 155.074 46.2825C154.109 46.2825 152.95 45.7514 152.387 45.2203L151.502 46.6526C152.323 47.409 153.626 47.8596 154.978 47.8596ZM111.611 66.8596C114.507 66.8596 115.908 65.379 115.908 63.4157C115.908 59.4084 109.744 60.5511 109.744 58.8452C109.744 58.2014 110.291 57.7669 111.273 57.7669C112.367 57.7669 113.526 58.1371 114.395 58.9417L115.666 57.268C114.604 56.2863 113.188 55.7713 111.482 55.7713C108.955 55.7713 107.41 57.2519 107.41 59.0383C107.41 63.0777 113.59 61.7741 113.59 63.6732C113.59 64.2847 112.979 64.8641 111.723 64.8641C110.243 64.8641 109.068 64.2042 108.312 63.4157L107.072 65.1537C108.07 66.1676 109.551 66.8596 111.611 66.8596ZM121.051 66.8596C122.258 66.8596 123.481 66.4895 124.254 65.7814L123.352 64.4617C122.854 64.9445 121.936 65.2342 121.276 65.2342C119.957 65.2342 119.168 64.4134 119.039 63.4318H124.817V62.9811C124.817 60.4384 123.24 58.7003 120.922 58.7003C118.557 58.7003 116.899 60.5189 116.899 62.7719C116.899 65.2664 118.685 66.8596 121.051 66.8596ZM122.837 62.0477H119.007C119.104 61.2753 119.651 60.3257 120.922 60.3257C122.274 60.3257 122.789 61.3074 122.837 62.0477ZM129.914 66.8596C131.507 66.8596 132.473 66.1676 132.988 65.4434L131.652 64.2042C131.282 64.7192 130.719 65.0411 130.011 65.0411C128.772 65.0411 127.903 64.1238 127.903 62.7719C127.903 61.4201 128.772 60.5189 130.011 60.5189C130.719 60.5189 131.282 60.8085 131.652 61.3557L132.988 60.1004C132.473 59.3923 131.507 58.7003 129.914 58.7003C127.516 58.7003 125.794 60.3901 125.794 62.7719C125.794 65.1698 127.516 66.8596 129.914 66.8596ZM141.614 66.6665V58.8934H139.571V64.156C139.217 64.6066 138.589 65.0411 137.8 65.0411C136.931 65.0411 136.368 64.687 136.368 63.6088V58.8934H134.324V64.4134C134.324 65.9262 135.129 66.8596 136.835 66.8596C138.106 66.8596 139.04 66.2803 139.571 65.6848V66.6665H141.614ZM145.688 66.6665V61.5327C146.026 61.0339 146.927 60.6476 147.603 60.6476C147.828 60.6476 148.021 60.6637 148.166 60.6959V58.7003C147.2 58.7003 146.235 59.2636 145.688 59.9556V58.8934H143.644V66.6665H145.688ZM153.096 66.8596C154.303 66.8596 155.526 66.4895 156.299 65.7814L155.398 64.4617C154.899 64.9445 153.981 65.2342 153.322 65.2342C152.002 65.2342 151.213 64.4134 151.085 63.4318H156.862V62.9811C156.862 60.4384 155.285 58.7003 152.967 58.7003C150.602 58.7003 148.944 60.5189 148.944 62.7719C148.944 65.2664 150.731 66.8596 153.096 66.8596ZM154.883 62.0477H151.052C151.149 61.2753 151.696 60.3257 152.967 60.3257C154.319 60.3257 154.834 61.3074 154.883 62.0477Z" fill="#222222"/>
<circle cx="55.5337" cy="51.8667" r="34.1333" fill="url(#paint0_linear_363_1127)"/>
<path d="M42.5433 39.9364L53.9652 35.0697C54.7973 34.7098 55.7763 34.7098 56.6085 35.0697L68.0304 39.9364C69.2052 40.4372 69.9721 41.5639 69.9721 42.8001V50.1549C69.9721 58.8398 63.7064 66.9614 55.2868 68.9331C46.8673 66.9614 40.6016 58.8398 40.6016 50.1549V42.8001C40.6016 41.5639 41.3685 40.4372 42.5433 39.9364Z" fill="white"/>
<path d="M54.3159 57.1268C53.4205 58.0518 51.974 58.0518 51.0785 57.1148L47.4163 53.2824C46.7849 52.6217 46.7963 51.5525 47.4507 50.9158C48.0707 50.2911 49.058 50.3151 49.6549 50.9398L52.6972 54.1234L60.079 46.3987C60.699 45.7499 61.6978 45.7499 62.3177 46.3987L62.3636 46.4467C62.9836 47.0954 62.9835 48.1526 62.3521 48.8014L54.3159 57.1268Z" fill="#4DB56C"/>
</g>
<defs>
<filter id="filter0_d_363_1127" x="0.0670567" y="0.666731" width="207.999" height="110.933" filterUnits="userSpaceOnUse" color-interpolation-filters="sRGB">
<feFlood flood-opacity="0" result="BackgroundImageFix"/>
<feColorMatrix in="SourceAlpha" type="matrix" values="0 0 0 0 0 0 0 0 0 0 0 0 0 0 0 0 0 0 127 0" result="hardAlpha"/>
<feOffset dy="4.26667"/>
<feGaussianBlur stdDeviation="10.6667"/>
<feComposite in2="hardAlpha" operator="out"/>
<feColorMatrix type="matrix" values="0 0 0 0 0 0 0 0 0 0 0 0 0 0 0 0 0 0 0.1 0"/>
<feBlend mode="normal" in2="BackgroundImageFix" result="effect1_dropShadow_363_1127"/>
<feBlend mode="normal" in="SourceGraphic" in2="effect1_dropShadow_363_1127" result="shape"/>
</filter>
<linearGradient id="paint0_linear_363_1127" x1="22.1175" y1="17.7334" x2="78.586" y2="94.0926" gradientUnits="userSpaceOnUse">
<stop stop-color="#79E098"/>
<stop offset="1" stop-color="#39A258"/>
</linearGradient>
</defs>
</svg>
