<svg width="217" height="104" viewBox="0 0 217 104" fill="none" xmlns="http://www.w3.org/2000/svg">
<g filter="url(#filter0_d_362_583)">
<rect x="44" y="20" width="153" height="56" rx="28" fill="white" shape-rendering="crispEdges"/>
<path d="M100.513 38.9759C100.513 42.1442 102.927 44.1961 105.869 44.1961C107.695 44.1961 109.128 43.4418 110.154 42.2951V38.4478H105.356V40.2885H108.042V41.5106C107.604 41.9028 106.789 42.28 105.869 42.28C104.043 42.28 102.716 40.8769 102.716 38.9759C102.716 37.0749 104.043 35.6717 105.869 35.6717C106.925 35.6717 107.785 36.23 108.253 36.9391L110.033 35.9735C109.264 34.7816 107.951 33.7707 105.869 33.7707C102.927 33.7707 100.513 35.7924 100.513 38.9759ZM111.342 40.3488C111.342 42.6874 113.016 44.181 115.234 44.181C116.366 44.181 117.497 43.8491 118.237 43.1702L117.392 41.933C116.924 42.3856 116.124 42.6572 115.445 42.6572C114.208 42.6572 113.469 41.8878 113.348 40.9674H118.765V40.545C118.765 38.1612 117.286 36.5317 115.114 36.5317C112.896 36.5317 111.342 38.2366 111.342 40.3488ZM115.114 38.0555C116.381 38.0555 116.864 38.9759 116.909 39.6699H113.318C113.409 38.9457 113.922 38.0555 115.114 38.0555ZM122.593 44.181C123.393 44.181 123.905 43.9698 124.192 43.7133L123.785 42.2649C123.679 42.3706 123.408 42.4762 123.121 42.4762C122.698 42.4762 122.457 42.1292 122.457 41.6765V38.3875H123.936V36.7128H122.457V34.7212H120.526V36.7128H119.319V38.3875H120.526V42.1895C120.526 43.487 121.25 44.181 122.593 44.181ZM139.185 38.9759C139.185 35.9433 136.967 33.7707 133.92 33.7707C130.887 33.7707 128.669 35.9433 128.669 38.9759C128.669 42.0085 130.887 44.181 133.92 44.181C134.795 44.181 135.61 44 136.319 43.6681L137.118 44.6186L138.612 43.3965L137.873 42.5365C138.703 41.6313 139.185 40.3941 139.185 38.9759ZM133.92 42.28C132.064 42.28 130.872 40.8467 130.872 38.9759C130.872 37.0899 132.064 35.6717 133.92 35.6717C135.776 35.6717 136.983 37.0899 136.983 38.9759C136.983 39.7001 136.801 40.3639 136.47 40.892L135.323 39.5492L133.829 40.7562L134.976 42.099C134.659 42.2197 134.297 42.28 133.92 42.28ZM147.478 44V36.7128H145.562V41.6464C145.23 42.0688 144.642 42.4762 143.902 42.4762C143.088 42.4762 142.56 42.1442 142.56 41.1334V36.7128H140.643V41.8878C140.643 43.306 141.398 44.181 142.997 44.181C144.189 44.181 145.064 43.6379 145.562 43.0797V44H147.478ZM152.76 44.181C155.174 44.181 156.623 42.4309 156.623 40.3488C156.623 38.2819 155.174 36.5317 152.76 36.5317C150.361 36.5317 148.913 38.2819 148.913 40.3488C148.913 42.4309 150.361 44.181 152.76 44.181ZM152.76 42.4762C151.568 42.4762 150.904 41.4955 150.904 40.3488C150.904 39.2173 151.568 38.2366 152.76 38.2366C153.952 38.2366 154.631 39.2173 154.631 40.3488C154.631 41.4955 153.952 42.4762 152.76 42.4762ZM160.488 44.181C161.288 44.181 161.801 43.9698 162.088 43.7133L161.68 42.2649C161.575 42.3706 161.303 42.4762 161.016 42.4762C160.594 42.4762 160.353 42.1292 160.353 41.6765V38.3875H161.831V36.7128H160.353V34.7212H158.421V36.7128H157.214V38.3875H158.421V42.1895C158.421 43.487 159.146 44.181 160.488 44.181ZM162.674 40.3488C162.674 42.6874 164.349 44.181 166.567 44.181C167.698 44.181 168.83 43.8491 169.569 43.1702L168.724 41.933C168.257 42.3856 167.457 42.6572 166.778 42.6572C165.541 42.6572 164.802 41.8878 164.681 40.9674H170.097V40.545C170.097 38.1612 168.619 36.5317 166.446 36.5317C164.228 36.5317 162.674 38.2366 162.674 40.3488ZM166.446 38.0555C167.714 38.0555 168.196 38.9759 168.242 39.6699H164.651C164.741 38.9457 165.254 38.0555 166.446 38.0555ZM101.901 53.6416C102.535 53.6416 103.048 53.1286 103.048 52.4949C103.048 51.8612 102.535 51.3483 101.901 51.3483C101.282 51.3483 100.754 51.8612 100.754 52.4949C100.754 53.1286 101.282 53.6416 101.901 53.6416ZM102.867 62V54.7128H100.951V62H102.867ZM111.601 62V56.8552C111.601 55.437 110.832 54.5317 109.232 54.5317C108.041 54.5317 107.15 55.105 106.683 55.6633V54.7128H104.767V62H106.683V57.0966C107 56.659 107.588 56.2366 108.342 56.2366C109.157 56.2366 109.685 56.5836 109.685 57.5945V62H111.601ZM124.697 62V60.1141H120.502C123.203 58.213 124.621 56.7194 124.621 54.9994C124.621 52.9928 122.916 51.7858 120.774 51.7858C119.371 51.7858 117.877 52.2988 116.896 53.4303L118.118 54.8485C118.797 54.1394 119.672 53.6868 120.804 53.6868C121.649 53.6868 122.448 54.1243 122.448 54.9994C122.448 56.2366 121.241 57.2776 117.123 60.3102V62H124.697ZM132.793 62V59.9179H134.09V58.032H132.793V51.9367H129.835L125.837 58.2281V59.9179H130.65V62H132.793ZM130.65 58.032H127.934L130.65 53.8377V58.032ZM146.123 62V56.825C146.123 55.4068 145.353 54.5317 143.754 54.5317C142.562 54.5317 141.657 55.105 141.189 55.6633V51.9367H139.273V62H141.189V57.0966C141.521 56.659 142.11 56.2366 142.849 56.2366C143.679 56.2366 144.207 56.5534 144.207 57.5643V62H146.123ZM149.941 62V57.1871C150.258 56.7194 151.103 56.3724 151.737 56.3724C151.948 56.3724 152.129 56.3875 152.265 56.4176V54.5468C151.359 54.5468 150.454 55.0598 149.941 55.7085V54.7128H148.025V62H149.941ZM152.828 61.0495C153.598 61.7586 154.82 62.181 156.087 62.181C158.109 62.181 159.24 61.1853 159.24 59.8425C159.24 58.032 157.566 57.7001 156.313 57.4587C155.499 57.2927 154.925 57.1268 154.925 56.6741C154.925 56.2517 155.378 55.9952 156.072 55.9952C156.962 55.9952 157.792 56.3724 158.23 56.8401L158.984 55.5275C158.275 54.9542 157.294 54.5317 156.057 54.5317C154.141 54.5317 153.07 55.6029 153.07 56.825C153.07 58.5601 154.684 58.8618 155.936 59.1032C156.766 59.2692 157.4 59.4502 157.4 59.9632C157.4 60.4158 157.007 60.7025 156.178 60.7025C155.272 60.7025 154.186 60.2046 153.658 59.7067L152.828 61.0495Z" fill="#222222"/>
<circle cx="52" cy="48" r="32" fill="url(#paint0_linear_362_583)"/>
<path d="M48.6361 32.8742C48.2385 32.8742 47.9047 32.7314 47.6346 32.4458C47.3645 32.1595 47.2295 31.8162 47.2295 31.416C47.2295 31.015 47.3645 30.679 47.6346 30.4078C47.9047 30.1359 48.2385 30 48.6361 30H56.0525C56.45 30 56.7839 30.1359 57.0539 30.4078C57.324 30.679 57.459 31.015 57.459 31.416C57.459 31.8451 57.324 32.1955 57.0539 32.4674C56.7839 32.7386 56.45 32.8742 56.0525 32.8742H48.6361ZM52.3443 66C50.2418 66 48.2596 65.5925 46.3978 64.7776C44.5368 63.962 42.9103 62.8533 41.5184 61.4513C40.1258 60.0501 39.0248 58.4127 38.2153 56.5392C37.4051 54.6649 37 52.6695 37 50.5529C37 48.4363 37.4051 46.4412 38.2153 44.5677C39.0248 42.6934 40.1258 41.0557 41.5184 39.6544C42.9103 38.2525 44.5368 37.1438 46.3978 36.3282C48.2596 35.5132 50.2418 35.1058 52.3443 35.1058C54.191 35.1058 55.9386 35.4134 57.5869 36.0285C59.2352 36.6436 60.7413 37.509 62.1053 38.6246L63.341 37.3796C63.6254 37.094 63.9592 36.9512 64.3425 36.9512C64.7264 36.9512 65.0602 37.094 65.3439 37.3796C65.5997 37.6659 65.7275 38.0092 65.7275 38.4094C65.7275 38.8103 65.5997 39.1395 65.3439 39.397L64.1082 40.6843C65.1598 41.9138 66.0194 43.3439 66.6871 44.9744C67.3547 46.605 67.6885 48.4644 67.6885 50.5529C67.6885 52.6695 67.2834 54.6649 66.4733 56.5392C65.6638 58.4127 64.5627 60.0501 63.1702 61.4513C61.7783 62.8533 60.1514 63.962 58.2897 64.7776C56.4286 65.5925 54.4468 66 52.3443 66Z" fill="white"/>
<path d="M53.3455 51.5153C53.0755 51.7872 52.7416 51.9231 52.3441 51.9231C51.9465 51.9231 51.6126 51.7872 51.3426 51.5153C51.0725 51.2442 50.9375 50.9081 50.9375 50.5072V43.3418C50.9375 42.9415 51.0725 42.6055 51.3426 42.3336C51.6126 42.0617 51.9465 41.9258 52.3441 41.9258C52.7416 41.9258 53.0755 42.0617 53.3455 42.3336C53.6156 42.6055 53.7506 42.9415 53.7506 43.3418V50.5072C53.7506 50.9081 53.6156 51.2442 53.3455 51.5153Z" fill="#FFB051"/>
</g>
<defs>
<filter id="filter0_d_362_583" x="0" y="0" width="217" height="104" filterUnits="userSpaceOnUse" color-interpolation-filters="sRGB">
<feFlood flood-opacity="0" result="BackgroundImageFix"/>
<feColorMatrix in="SourceAlpha" type="matrix" values="0 0 0 0 0 0 0 0 0 0 0 0 0 0 0 0 0 0 127 0" result="hardAlpha"/>
<feOffset dy="4"/>
<feGaussianBlur stdDeviation="10"/>
<feComposite in2="hardAlpha" operator="out"/>
<feColorMatrix type="matrix" values="0 0 0 0 0 0 0 0 0 0 0 0 0 0 0 0 0 0 0.1 0"/>
<feBlend mode="normal" in2="BackgroundImageFix" result="effect1_dropShadow_362_583"/>
<feBlend mode="normal" in="SourceGraphic" in2="effect1_dropShadow_362_583" result="shape"/>
</filter>
<linearGradient id="paint0_linear_362_583" x1="20.6723" y1="16" x2="73.6115" y2="87.5868" gradientUnits="userSpaceOnUse">
<stop stop-color="#FFB051"/>
<stop offset="0.0001" stop-color="#FFCA8A"/>
<stop offset="1" stop-color="#F19B33"/>
</linearGradient>
</defs>
</svg>
