<svg width="232" height="112" viewBox="0 0 232 112" fill="none" xmlns="http://www.w3.org/2000/svg">
<g filter="url(#filter0_d_363_1134)">
<rect x="47" y="22" width="163.2" height="59.7333" rx="29.8667" fill="white" shape-rendering="crispEdges"/>
<path d="M112.993 47.8757C114.94 47.8757 116.469 47.0711 117.563 45.848V41.7281H112.446V43.7236H115.278V45.0111C114.843 45.4134 113.942 45.8319 112.993 45.8319C111.045 45.8319 109.629 44.3352 109.629 42.3074C109.629 40.2797 111.045 38.783 112.993 38.783C114.135 38.783 115.053 39.4267 115.535 40.1831L117.434 39.1532C116.63 37.8818 115.23 36.7553 112.993 36.7553C109.855 36.7553 107.28 38.9118 107.28 42.3074C107.28 45.687 109.855 47.8757 112.993 47.8757ZM122.982 47.8596C124.189 47.8596 125.412 47.4895 126.185 46.7814L125.284 45.4617C124.785 45.9445 123.867 46.2342 123.208 46.2342C121.888 46.2342 121.099 45.4134 120.971 44.4318H126.748V43.9811C126.748 41.4384 125.171 39.7003 122.853 39.7003C120.488 39.7003 118.83 41.5189 118.83 43.7719C118.83 46.2664 120.617 47.8596 122.982 47.8596ZM124.769 43.0477H120.938C121.035 42.2753 121.582 41.3257 122.853 41.3257C124.205 41.3257 124.72 42.3074 124.769 43.0477ZM130.831 47.8596C131.684 47.8596 132.232 47.6343 132.537 47.3607L132.103 45.8158C131.99 45.9284 131.701 46.0411 131.395 46.0411C130.944 46.0411 130.687 45.6709 130.687 45.1881V41.6798H132.264V39.8934H130.687V37.7691H128.627V39.8934H127.339V41.6798H128.627V45.7353C128.627 47.1193 129.399 47.8596 130.831 47.8596ZM142.914 47.8596C143.847 47.8596 144.7 47.6665 145.456 47.3285L146.325 48.3263L147.919 47.0228L147.13 46.1055C148.015 45.1399 148.53 43.8202 148.53 42.3074C148.53 39.0727 146.164 36.7553 142.914 36.7553C139.679 36.7553 137.313 39.0727 137.313 42.3074C137.313 45.5422 139.679 47.8596 142.914 47.8596ZM142.914 45.8319C140.934 45.8319 139.663 44.303 139.663 42.3074C139.663 40.2958 140.934 38.783 142.914 38.783C144.893 38.783 146.18 40.2958 146.18 42.3074C146.18 43.0799 145.987 43.788 145.633 44.3674L144.442 42.9673L142.865 44.2708L144.04 45.6548C143.686 45.7675 143.316 45.8319 142.914 45.8319ZM157.376 47.6665V39.8934H155.332V45.156C154.978 45.6066 154.35 46.0411 153.562 46.0411C152.693 46.0411 152.129 45.687 152.129 44.6088V39.8934H150.085V45.4134C150.085 46.9262 150.89 47.8596 152.596 47.8596C153.867 47.8596 154.801 47.2803 155.332 46.6848V47.6665H157.376ZM163.01 47.8596C165.585 47.8596 167.13 45.9928 167.13 43.7719C167.13 41.5671 165.585 39.7003 163.01 39.7003C160.451 39.7003 158.906 41.5671 158.906 43.7719C158.906 45.9928 160.451 47.8596 163.01 47.8596ZM163.01 46.0411C161.739 46.0411 161.031 44.995 161.031 43.7719C161.031 42.5649 161.739 41.5189 163.01 41.5189C164.281 41.5189 165.006 42.5649 165.006 43.7719C165.006 44.995 164.281 46.0411 163.01 46.0411ZM171.253 47.8596C172.106 47.8596 172.653 47.6343 172.959 47.3607L172.525 45.8158C172.412 45.9284 172.122 46.0411 171.817 46.0411C171.366 46.0411 171.108 45.6709 171.108 45.1881V41.6798H172.686V39.8934H171.108V37.7691H169.049V39.8934H167.761V41.6798H169.049V45.7353C169.049 47.1193 169.821 47.8596 171.253 47.8596ZM177.737 47.8596C178.944 47.8596 180.167 47.4895 180.94 46.7814L180.038 45.4617C179.54 45.9445 178.622 46.2342 177.962 46.2342C176.643 46.2342 175.854 45.4134 175.725 44.4318H181.503V43.9811C181.503 41.4384 179.926 39.7003 177.608 39.7003C175.243 39.7003 173.585 41.5189 173.585 43.7719C173.585 46.2664 175.371 47.8596 177.737 47.8596ZM179.523 43.0477H175.693C175.79 42.2753 176.337 41.3257 177.608 41.3257C178.96 41.3257 179.475 42.3074 179.523 43.0477ZM108.76 58.0566C109.436 58.0566 109.983 57.5094 109.983 56.8335C109.983 56.1576 109.436 55.6265 108.76 55.6265C108.1 55.6265 107.537 56.1576 107.537 56.8335C107.537 57.5094 108.1 58.0566 108.76 58.0566ZM109.79 66.6665V58.8934H107.746V66.6665H109.79ZM119.107 66.6665V61.1787C119.107 59.6659 118.286 58.7003 116.58 58.7003C115.309 58.7003 114.36 59.3119 113.861 59.9073V58.8934H111.817V66.6665H113.861V61.4362C114.199 60.9695 114.826 60.5189 115.631 60.5189C116.5 60.5189 117.063 60.889 117.063 61.9673V66.6665H119.107ZM133.075 66.6665V64.6548H128.698C131.482 62.6271 132.995 61.0339 132.995 59.1992C132.995 57.0588 131.176 55.7713 128.891 55.7713C127.394 55.7713 125.801 56.3185 124.755 57.5255L126.059 59.0383C126.783 58.2819 127.716 57.7991 128.939 57.7991C129.825 57.7991 130.677 58.2658 130.677 59.1992C130.677 60.5189 129.39 61.6293 124.997 64.8801V66.6665H133.075ZM141.711 66.6665V64.4456H143.095V62.434H141.711V55.9323H138.557L134.292 62.6432V64.4456H139.426V66.6665H141.711ZM139.426 62.434H136.529L139.426 57.96V62.434ZM155.93 66.6665V61.1465C155.93 59.6337 155.109 58.7003 153.404 58.7003C152.132 58.7003 151.167 59.3119 150.668 59.9073V55.9323H148.624V66.6665H150.668V61.4362C151.022 60.9695 151.649 60.5189 152.438 60.5189C153.323 60.5189 153.886 60.8568 153.886 61.9351V66.6665H155.93ZM160.003 66.6665V61.5327C160.341 61.0339 161.242 60.6476 161.918 60.6476C162.143 60.6476 162.337 60.6637 162.481 60.6959V58.7003C161.516 58.7003 160.55 59.2636 160.003 59.9556V58.8934H157.959V66.6665H160.003ZM166.559 66.8596C168.715 66.8596 169.922 65.7814 169.922 64.3652C169.922 61.227 165.32 62.1926 165.32 61.0339C165.32 60.5993 165.802 60.2614 166.543 60.2614C167.492 60.2614 168.377 60.6637 168.844 61.1626L169.665 59.7625C168.892 59.1509 167.846 58.7003 166.527 58.7003C164.483 58.7003 163.34 59.843 163.34 61.1465C163.34 64.2042 167.959 63.1582 167.959 64.4456C167.959 64.9284 167.54 65.2825 166.655 65.2825C165.69 65.2825 164.531 64.7514 163.968 64.2203L163.083 65.6526C163.903 66.409 165.207 66.8596 166.559 66.8596Z" fill="#222222"/>
<circle cx="55.5318" cy="51.8667" r="34.1333" fill="url(#paint0_linear_363_1134)"/>
<path d="M51.9431 35.7328C51.519 35.7328 51.1629 35.5805 50.8748 35.2758C50.5868 34.9705 50.4427 34.6043 50.4427 34.1774C50.4427 33.7497 50.5868 33.3912 50.8748 33.102C51.1629 32.812 51.519 32.667 51.9431 32.667H59.8539C60.278 32.667 60.634 32.812 60.9221 33.102C61.2102 33.3912 61.3542 33.7497 61.3542 34.1774C61.3542 34.6351 61.2102 35.0089 60.9221 35.2989C60.634 35.5882 60.278 35.7328 59.8539 35.7328H51.9431ZM55.8985 71.067C53.6558 71.067 51.5415 70.6324 49.5556 69.7631C47.5705 68.8931 45.8355 67.7105 44.3508 66.2151C42.8654 64.7205 41.691 62.9739 40.8275 60.9754C39.9633 58.9762 39.5312 56.8478 39.5312 54.5901C39.5312 52.3324 39.9633 50.2043 40.8275 48.2058C41.691 46.2066 42.8654 44.4597 44.3508 42.9651C45.8355 41.4697 47.5705 40.287 49.5556 39.417C51.5415 38.5478 53.6558 38.1132 55.8985 38.1132C57.8683 38.1132 59.7324 38.4412 61.4906 39.0974C63.2488 39.7535 64.8553 40.6766 66.3102 41.8666L67.6283 40.5386C67.9316 40.2339 68.2877 40.0816 68.6965 40.0816C69.1061 40.0816 69.4622 40.2339 69.7648 40.5386C70.0376 40.8439 70.1739 41.2101 70.1739 41.637C70.1739 42.0647 70.0376 42.4158 69.7648 42.6904L68.4467 44.0635C69.5684 45.3751 70.4853 46.9005 71.1974 48.6397C71.9096 50.3789 72.2657 52.3624 72.2657 54.5901C72.2657 56.8478 71.8336 58.9762 70.9694 60.9754C70.1059 62.9739 68.9315 64.7205 67.4461 66.2151C65.9614 67.7105 64.2261 68.8931 62.2402 69.7631C60.2551 70.6324 58.1411 71.067 55.8985 71.067Z" fill="white"/>
<path d="M56.967 55.6166C56.6789 55.9066 56.3229 56.0516 55.8988 56.0516C55.4747 56.0516 55.1186 55.9066 54.8305 55.6166C54.5425 55.3273 54.3984 54.9688 54.3984 54.5412V46.8981C54.3984 46.4711 54.5425 46.1127 54.8305 45.8227C55.1186 45.5327 55.4747 45.3877 55.8988 45.3877C56.3229 45.3877 56.6789 45.5327 56.967 45.8227C57.2551 46.1127 57.3991 46.4711 57.3991 46.8981V54.5412C57.3991 54.9688 57.2551 55.3273 56.967 55.6166Z" fill="#FFB051"/>
</g>
<defs>
<filter id="filter0_d_363_1134" x="0.0651035" y="0.666731" width="231.467" height="110.933" filterUnits="userSpaceOnUse" color-interpolation-filters="sRGB">
<feFlood flood-opacity="0" result="BackgroundImageFix"/>
<feColorMatrix in="SourceAlpha" type="matrix" values="0 0 0 0 0 0 0 0 0 0 0 0 0 0 0 0 0 0 127 0" result="hardAlpha"/>
<feOffset dy="4.26667"/>
<feGaussianBlur stdDeviation="10.6667"/>
<feComposite in2="hardAlpha" operator="out"/>
<feColorMatrix type="matrix" values="0 0 0 0 0 0 0 0 0 0 0 0 0 0 0 0 0 0 0.1 0"/>
<feBlend mode="normal" in2="BackgroundImageFix" result="effect1_dropShadow_363_1134"/>
<feBlend mode="normal" in="SourceGraphic" in2="effect1_dropShadow_363_1134" result="shape"/>
</filter>
<linearGradient id="paint0_linear_363_1134" x1="22.1156" y1="17.7334" x2="78.584" y2="94.0926" gradientUnits="userSpaceOnUse">
<stop stop-color="#FFB051"/>
<stop offset="0.0001" stop-color="#FFCA8A"/>
<stop offset="1" stop-color="#F19B33"/>
</linearGradient>
</defs>
</svg>
