<svg width="230" height="112" viewBox="0 0 230 112" fill="none" xmlns="http://www.w3.org/2000/svg">
<g filter="url(#filter0_d_363_1141)">
<rect x="46.1328" y="22.1333" width="162.133" height="59.7333" rx="29.8667" fill="white" shape-rendering="crispEdges"/>
<path d="M110.743 47.9929C113.64 47.9929 115.04 46.5123 115.04 44.549C115.04 40.5417 108.877 41.6844 108.877 39.9785C108.877 39.3347 109.424 38.9002 110.405 38.9002C111.5 38.9002 112.659 39.2704 113.528 40.075L114.799 38.4013C113.737 37.4196 112.321 36.9047 110.615 36.9047C108.088 36.9047 106.543 38.3852 106.543 40.1716C106.543 44.211 112.723 42.9074 112.723 44.8065C112.723 45.418 112.111 45.9974 110.856 45.9974C109.376 45.9974 108.201 45.3375 107.444 44.549L106.205 46.287C107.203 47.3009 108.684 47.9929 110.743 47.9929ZM124.127 47.7998L120.956 43.5512L124.03 40.0267H121.52L118.575 43.4868V37.0656H116.531V47.7998H118.575V45.8042L119.508 44.8065L121.568 47.7998H124.127ZM126.157 39.1899C126.833 39.1899 127.38 38.6427 127.38 37.9668C127.38 37.2909 126.833 36.7598 126.157 36.7598C125.497 36.7598 124.934 37.2909 124.934 37.9668C124.934 38.6427 125.497 39.1899 126.157 39.1899ZM127.187 47.7998V40.0267H125.143V47.7998H127.187ZM133.655 47.9929C135.651 47.9929 137.099 46.4962 137.099 43.9052C137.099 41.3142 135.651 39.8336 133.655 39.8336C132.706 39.8336 131.853 40.2521 131.257 41.0084V40.0267H129.214V50.761H131.257V46.802C131.885 47.6067 132.738 47.9929 133.655 47.9929ZM133.012 46.1744C132.352 46.1744 131.595 45.7721 131.257 45.2893V42.5373C131.595 42.0384 132.352 41.6522 133.012 41.6522C134.186 41.6522 134.975 42.5695 134.975 43.9052C134.975 45.2571 134.186 46.1744 133.012 46.1744ZM109.215 66.7998V62.9857H111.95C114.268 62.9857 115.555 61.3925 115.555 59.5256C115.555 57.6427 114.284 56.0656 111.95 56.0656H106.929V66.7998H109.215ZM111.645 60.974H109.215V58.0772H111.645C112.546 58.0772 113.222 58.6244 113.222 59.5256C113.222 60.4108 112.546 60.974 111.645 60.974ZM123.32 66.7998V61.7787C123.32 59.5417 121.695 58.8336 119.925 58.8336C118.701 58.8336 117.478 59.2199 116.529 60.0567L117.301 61.4246C117.961 60.8131 118.734 60.5073 119.57 60.5073C120.6 60.5073 121.276 61.0223 121.276 61.8109V62.8569C120.761 62.2454 119.844 61.9074 118.814 61.9074C117.575 61.9074 116.11 62.5995 116.11 64.418C116.11 66.1561 117.575 66.9929 118.814 66.9929C119.828 66.9929 120.745 66.6228 121.276 65.9951V66.7998H123.32ZM119.635 65.6089C118.83 65.6089 118.17 65.1905 118.17 64.4663C118.17 63.7099 118.83 63.2915 119.635 63.2915C120.295 63.2915 120.938 63.5168 121.276 63.9674V64.933C120.938 65.3836 120.295 65.6089 119.635 65.6089ZM129.789 66.9929C131.785 66.9929 133.233 65.4962 133.233 62.9052C133.233 60.3142 131.785 58.8336 129.789 58.8336C128.84 58.8336 127.987 59.2521 127.391 60.0084V59.0267H125.347V69.761H127.391V65.802C128.019 66.6067 128.872 66.9929 129.789 66.9929ZM129.145 65.1744C128.486 65.1744 127.729 64.7721 127.391 64.2893V61.5373C127.729 61.0384 128.486 60.6522 129.145 60.6522C130.32 60.6522 131.109 61.5695 131.109 62.9052C131.109 64.2571 130.32 65.1744 129.145 65.1744ZM138.383 66.9929C139.59 66.9929 140.813 66.6228 141.586 65.9147L140.685 64.595C140.186 65.0778 139.268 65.3675 138.608 65.3675C137.289 65.3675 136.5 64.5467 136.372 63.5651H142.149V63.1144C142.149 60.5717 140.572 58.8336 138.254 58.8336C135.889 58.8336 134.231 60.6522 134.231 62.9052C134.231 65.3997 136.017 66.9929 138.383 66.9929ZM140.17 62.181H136.339C136.436 61.4086 136.983 60.4591 138.254 60.4591C139.606 60.4591 140.121 61.4407 140.17 62.181ZM145.669 66.7998V61.666C146.007 61.1672 146.908 60.7809 147.584 60.7809C147.81 60.7809 148.003 60.797 148.148 60.8292V58.8336C147.182 58.8336 146.216 59.3969 145.669 60.0889V59.0267H143.625V66.7998H145.669ZM158.421 66.7998L160.786 59.0267H158.662L157.214 64.2571L155.508 59.0267H153.689L151.983 64.2571L150.535 59.0267H148.411L150.776 66.7998H152.965L154.607 61.5051L156.248 66.7998H158.421ZM165.398 66.9929C167.973 66.9929 169.518 65.1261 169.518 62.9052C169.518 60.7004 167.973 58.8336 165.398 58.8336C162.839 58.8336 161.294 60.7004 161.294 62.9052C161.294 65.1261 162.839 66.9929 165.398 66.9929ZM165.398 65.1744C164.127 65.1744 163.419 64.1283 163.419 62.9052C163.419 61.6982 164.127 60.6522 165.398 60.6522C166.669 60.6522 167.394 61.6982 167.394 62.9052C167.394 64.1283 166.669 65.1744 165.398 65.1744ZM173.078 66.7998V61.666C173.416 61.1672 174.317 60.7809 174.993 60.7809C175.218 60.7809 175.412 60.797 175.556 60.8292V58.8336C174.591 58.8336 173.625 59.3969 173.078 60.0889V59.0267H171.034V66.7998H173.078ZM184.429 66.7998L181.259 62.5512L184.333 59.0267H181.822L178.877 62.4868V56.0656H176.833V66.7998H178.877V64.8042L179.811 63.8065L181.871 66.7998H184.429Z" fill="#222222"/>
<circle cx="55.7329" cy="52" r="34.1333" fill="url(#paint0_linear_363_1141)"/>
<path d="M42.6667 69.0669C41.8496 69.0669 41.1564 68.7898 40.5872 68.2354C40.0186 67.6804 39.7344 67.0046 39.7344 66.2079V41.2057C39.7344 40.409 40.0186 39.7331 40.5872 39.1781C41.1564 38.6238 41.8496 38.3466 42.6667 38.3466H51.0687C51.3019 37.3513 51.827 36.5334 52.6441 35.8931C53.4605 35.2534 54.4086 34.9336 55.4882 34.9336C56.5679 34.9336 57.5159 35.2534 58.3323 35.8931C59.1494 36.5334 59.6745 37.3513 59.9077 38.3466H68.3098C69.1269 38.3466 69.82 38.6238 70.3893 39.1781C70.9578 39.7331 71.2421 40.409 71.2421 41.2057V66.2079C71.2421 67.0046 70.9578 67.6804 70.3893 68.2354C69.82 68.7898 69.1269 69.0669 68.3098 69.0669H42.6667Z" fill="white"/>
<path d="M57.3261 62.2394H48.1804C47.7715 62.2394 47.4284 62.1046 47.1512 61.8349C46.8746 61.5646 46.7363 61.2301 46.7363 60.8314C46.7363 60.4334 46.8746 60.0921 47.1512 59.8074C47.4284 59.5234 47.7715 59.3814 48.1804 59.3814H57.3261C57.7343 59.3814 58.077 59.5166 58.3543 59.7869C58.6315 60.0566 58.7702 60.4047 58.7702 60.8314C58.7702 61.2301 58.6315 61.5646 58.3543 61.8349C58.077 62.1046 57.7343 62.2394 57.3261 62.2394Z" fill="#5681EC"/>
<path d="M62.7958 55.1144H48.1804C47.7715 55.1144 47.4284 54.9792 47.1512 54.7089C46.8746 54.4385 46.7363 54.1044 46.7363 53.7064C46.7363 53.3084 46.8746 52.9742 47.1512 52.7038C47.4284 52.4335 47.7715 52.2983 48.1804 52.2983H62.7958C63.2047 52.2983 63.5478 52.4335 63.8251 52.7038C64.1016 52.9742 64.2399 53.3084 64.2399 53.7064C64.2399 54.1044 64.1016 54.4385 63.8251 54.7089C63.5478 54.9792 63.2047 55.1144 62.7958 55.1144Z" fill="#5681EC"/>
<path d="M62.7958 48.0313H48.1804C47.7715 48.0313 47.4284 47.8965 47.1512 47.6268C46.8746 47.3565 46.7363 47.008 46.7363 46.5813C46.7363 46.1826 46.8746 45.8484 47.1512 45.5788C47.4284 45.3084 47.7715 45.1733 48.1804 45.1733H62.7958C63.2047 45.1733 63.5478 45.3084 63.8251 45.5788C64.1016 45.8484 64.2399 46.1826 64.2399 46.5813C64.2399 46.9793 64.1016 47.3206 63.8251 47.6053C63.5478 47.8893 63.2047 48.0313 62.7958 48.0313Z" fill="#5681EC"/>
<path d="M56.5163 39.8607C56.239 40.1311 55.8963 40.2662 55.4881 40.2662C55.0799 40.2662 54.7372 40.1311 54.4599 39.8607C54.1826 39.5904 54.044 39.2562 54.044 38.8582C54.044 38.4602 54.1826 38.126 54.4599 37.8557C54.7372 37.5854 55.0799 37.4502 55.4881 37.4502C55.8963 37.4502 56.239 37.5854 56.5163 37.8557C56.7936 38.126 56.9322 38.4602 56.9322 38.8582C56.9322 39.2562 56.7936 39.5904 56.5163 39.8607Z" fill="#5681EC"/>
</g>
<defs>
<filter id="filter0_d_363_1141" x="0.266275" y="0.800032" width="229.333" height="110.933" filterUnits="userSpaceOnUse" color-interpolation-filters="sRGB">
<feFlood flood-opacity="0" result="BackgroundImageFix"/>
<feColorMatrix in="SourceAlpha" type="matrix" values="0 0 0 0 0 0 0 0 0 0 0 0 0 0 0 0 0 0 127 0" result="hardAlpha"/>
<feOffset dy="4.26667"/>
<feGaussianBlur stdDeviation="10.6667"/>
<feComposite in2="hardAlpha" operator="out"/>
<feColorMatrix type="matrix" values="0 0 0 0 0 0 0 0 0 0 0 0 0 0 0 0 0 0 0.1 0"/>
<feBlend mode="normal" in2="BackgroundImageFix" result="effect1_dropShadow_363_1141"/>
<feBlend mode="normal" in="SourceGraphic" in2="effect1_dropShadow_363_1141" result="shape"/>
</filter>
<linearGradient id="paint0_linear_363_1141" x1="22.3168" y1="17.8667" x2="78.7852" y2="94.2259" gradientUnits="userSpaceOnUse">
<stop stop-color="#90B0FF"/>
<stop offset="1" stop-color="#5681EC"/>
</linearGradient>
</defs>
</svg>
