<svg width="215" height="104" viewBox="0 0 215 104" fill="none" xmlns="http://www.w3.org/2000/svg">
<g filter="url(#filter0_d_362_569)">
<rect x="43" y="20" width="152" height="56" rx="28" fill="white" shape-rendering="crispEdges"/>
<path d="M99.3017 42.5818C100.252 43.5323 101.64 44.181 103.571 44.181C106.287 44.181 107.6 42.793 107.6 40.9523C107.6 38.7194 105.488 38.2215 103.828 37.8443C102.666 37.5727 101.821 37.3615 101.821 36.6826C101.821 36.0791 102.334 35.6566 103.3 35.6566C104.281 35.6566 105.367 36.0036 106.182 36.758L107.374 35.1889C106.378 34.2686 105.05 33.7858 103.451 33.7858C101.082 33.7858 99.6337 35.1437 99.6337 36.8184C99.6337 39.0664 101.746 39.519 103.39 39.8962C104.552 40.1678 105.427 40.4243 105.427 41.1786C105.427 41.752 104.854 42.3102 103.677 42.3102C102.289 42.3102 101.188 41.6916 100.479 40.9523L99.3017 42.5818ZM116.118 44L113.146 40.0169L116.028 36.7128H113.674L110.913 39.9566V33.9367H108.997V44H110.913V42.1292L111.788 41.1937L113.719 44H116.118ZM118.022 35.6416C118.655 35.6416 119.168 35.1286 119.168 34.4949C119.168 33.8612 118.655 33.3483 118.022 33.3483C117.403 33.3483 116.875 33.8612 116.875 34.4949C116.875 35.1286 117.403 35.6416 118.022 35.6416ZM118.987 44V36.7128H117.071V44H118.987ZM122.803 43.0646C123.392 43.819 124.191 44.181 125.051 44.181C126.922 44.181 128.28 42.7779 128.28 40.3488C128.28 37.9198 126.922 36.5317 125.051 36.5317C124.161 36.5317 123.362 36.924 122.803 37.6331V36.7128H120.887V46.7761H122.803V43.0646ZM126.289 40.3488C126.289 41.6162 125.549 42.4762 124.448 42.4762C123.829 42.4762 123.12 42.099 122.803 41.6464V39.0664C123.12 38.5987 123.829 38.2366 124.448 38.2366C125.549 38.2366 126.289 39.0966 126.289 40.3488ZM102.138 62V58.3941H104.703C106.876 58.3941 108.083 56.9306 108.083 55.1805C108.083 53.4152 106.891 51.9367 104.703 51.9367H99.9958V62H102.138ZM105.895 55.1654C105.895 56.0103 105.261 56.5534 104.416 56.5534H102.138V53.7773H104.416C105.261 53.7773 105.895 54.3356 105.895 55.1654ZM115.362 62V57.2927C115.362 55.1956 113.838 54.5317 112.179 54.5317C111.032 54.5317 109.885 54.8938 108.995 55.6784L109.72 56.9608C110.338 56.3875 111.062 56.1008 111.847 56.1008C112.812 56.1008 113.446 56.5836 113.446 57.3229V58.3337C112.963 57.7453 112.103 57.4436 111.138 57.4436C109.976 57.4436 108.603 58.0622 108.603 59.7671C108.603 61.3965 109.976 62.181 111.138 62.181C112.088 62.181 112.948 61.834 113.446 61.2456V62H115.362ZM113.446 60.2499C113.129 60.6723 112.526 60.8835 111.907 60.8835C111.153 60.8835 110.534 60.4913 110.534 59.8123C110.534 59.1183 111.153 58.7109 111.907 58.7109C112.526 58.7109 113.129 58.9222 113.446 59.3446V60.2499ZM119.179 61.0646C119.767 61.819 120.567 62.181 121.427 62.181C123.298 62.181 124.656 60.7779 124.656 58.3488C124.656 55.9198 123.298 54.5317 121.427 54.5317C120.537 54.5317 119.737 54.924 119.179 55.6331V54.7128H117.263V64.7761H119.179V61.0646ZM122.664 58.3488C122.664 59.6162 121.925 60.4762 120.823 60.4762C120.205 60.4762 119.496 60.099 119.179 59.6464V57.0664C119.496 56.5987 120.205 56.2366 120.823 56.2366C121.925 56.2366 122.664 57.0966 122.664 58.3488ZM125.621 58.3488C125.621 60.6874 127.295 62.181 129.513 62.181C130.645 62.181 131.776 61.8491 132.516 61.1702L131.671 59.933C131.203 60.3856 130.403 60.6572 129.724 60.6572C128.487 60.6572 127.748 59.8878 127.627 58.9674H133.044V58.545C133.044 56.1612 131.565 54.5317 129.392 54.5317C127.175 54.5317 125.621 56.2366 125.621 58.3488ZM129.392 56.0555C130.66 56.0555 131.143 56.9759 131.188 57.6699H127.597C127.688 56.9457 128.201 56.0555 129.392 56.0555ZM136.344 62V57.1871C136.661 56.7194 137.506 56.3724 138.139 56.3724C138.35 56.3724 138.531 56.3875 138.667 56.4176V54.5468C137.762 54.5468 136.857 55.0598 136.344 55.7085V54.7128H134.428V62H136.344ZM148.298 62L150.516 54.7128H148.525L147.167 59.6162L145.568 54.7128H143.863L142.263 59.6162L140.906 54.7128H138.914L141.132 62H143.184L144.723 57.0362L146.262 62H148.298ZM154.84 62.181C157.254 62.181 158.702 60.4309 158.702 58.3488C158.702 56.2819 157.254 54.5317 154.84 54.5317C152.441 54.5317 150.992 56.2819 150.992 58.3488C150.992 60.4309 152.441 62.181 154.84 62.181ZM154.84 60.4762C153.648 60.4762 152.984 59.4955 152.984 58.3488C152.984 57.2173 153.648 56.2366 154.84 56.2366C156.032 56.2366 156.71 57.2173 156.71 58.3488C156.71 59.4955 156.032 60.4762 154.84 60.4762ZM162.04 62V57.1871C162.356 56.7194 163.201 56.3724 163.835 56.3724C164.046 56.3724 164.227 56.3875 164.363 56.4176V54.5468C163.458 54.5468 162.553 55.0598 162.04 55.7085V54.7128H160.124V62H162.04ZM172.682 62L169.709 58.0169L172.591 54.7128H170.237L167.476 57.9566V51.9367H165.56V62H167.476V60.1292L168.351 59.1937L170.283 62H172.682Z" fill="#222222"/>
<circle cx="52" cy="48" r="32" fill="url(#paint0_linear_362_569)"/>
<path d="M39.749 64C38.983 64 38.3332 63.7402 37.7995 63.2205C37.2665 62.7001 37 62.0665 37 61.3197V37.8801C37 37.1332 37.2665 36.4996 37.7995 35.9792C38.3332 35.4596 38.983 35.1997 39.749 35.1997H47.626C47.8446 34.2666 48.3369 33.4999 49.1029 32.8995C49.8683 32.2998 50.757 32 51.7692 32C52.7814 32 53.6702 32.2998 54.4356 32.8995C55.2016 33.4999 55.6939 34.2666 55.9125 35.1997H63.7894C64.5554 35.1997 65.2053 35.4596 65.739 35.9792C66.272 36.4996 66.5385 37.1332 66.5385 37.8801V61.3197C66.5385 62.0665 66.272 62.7001 65.739 63.2205C65.2053 63.7402 64.5554 64 63.7894 64H39.749Z" fill="white"/>
<path d="M53.4923 57.5993H44.9183C44.535 57.5993 44.2133 57.4729 43.9534 57.2201C43.6941 56.9666 43.5645 56.653 43.5645 56.2793C43.5645 55.9061 43.6941 55.5861 43.9534 55.3193C44.2133 55.053 44.535 54.9199 44.9183 54.9199H53.4923C53.875 54.9199 54.1963 55.0466 54.4563 55.3001C54.7162 55.5529 54.8462 55.8793 54.8462 56.2793C54.8462 56.653 54.7162 56.9666 54.4563 57.2201C54.1963 57.4729 53.875 57.5993 53.4923 57.5993Z" fill="#5681EC"/>
<path d="M58.6202 50.9195H44.9183C44.535 50.9195 44.2133 50.7928 43.9534 50.5394C43.6941 50.2859 43.5645 49.9726 43.5645 49.5995C43.5645 49.2264 43.6941 48.9131 43.9534 48.6597C44.2133 48.4062 44.535 48.2795 44.9183 48.2795H58.6202C59.0036 48.2795 59.3252 48.4062 59.5851 48.6597C59.8444 48.9131 59.9741 49.2264 59.9741 49.5995C59.9741 49.9726 59.8444 50.2859 59.5851 50.5394C59.3252 50.7928 59.0036 50.9195 58.6202 50.9195Z" fill="#5681EC"/>
<path d="M58.6202 44.2792H44.9183C44.535 44.2792 44.2133 44.1528 43.9534 43.9C43.6941 43.6465 43.5645 43.3198 43.5645 42.9198C43.5645 42.546 43.6941 42.2327 43.9534 41.9799C44.2133 41.7265 44.535 41.5998 44.9183 41.5998H58.6202C59.0036 41.5998 59.3252 41.7265 59.5851 41.9799C59.8444 42.2327 59.9741 42.546 59.9741 42.9198C59.9741 43.2929 59.8444 43.6129 59.5851 43.8798C59.3252 44.146 59.0036 44.2792 58.6202 44.2792Z" fill="#5681EC"/>
<path d="M52.7332 36.6192C52.4733 36.8727 52.1519 36.9994 51.7693 36.9994C51.3866 36.9994 51.0653 36.8727 50.8053 36.6192C50.5454 36.3658 50.4154 36.0525 50.4154 35.6794C50.4154 35.3063 50.5454 34.993 50.8053 34.7395C51.0653 34.4861 51.3866 34.3594 51.7693 34.3594C52.1519 34.3594 52.4733 34.4861 52.7332 34.7395C52.9931 34.993 53.1231 35.3063 53.1231 35.6794C53.1231 36.0525 52.9931 36.3658 52.7332 36.6192Z" fill="#5681EC"/>
</g>
<defs>
<filter id="filter0_d_362_569" x="0" y="0" width="215" height="104" filterUnits="userSpaceOnUse" color-interpolation-filters="sRGB">
<feFlood flood-opacity="0" result="BackgroundImageFix"/>
<feColorMatrix in="SourceAlpha" type="matrix" values="0 0 0 0 0 0 0 0 0 0 0 0 0 0 0 0 0 0 127 0" result="hardAlpha"/>
<feOffset dy="4"/>
<feGaussianBlur stdDeviation="10"/>
<feComposite in2="hardAlpha" operator="out"/>
<feColorMatrix type="matrix" values="0 0 0 0 0 0 0 0 0 0 0 0 0 0 0 0 0 0 0.1 0"/>
<feBlend mode="normal" in2="BackgroundImageFix" result="effect1_dropShadow_362_569"/>
<feBlend mode="normal" in="SourceGraphic" in2="effect1_dropShadow_362_569" result="shape"/>
</filter>
<linearGradient id="paint0_linear_362_569" x1="20.6723" y1="16" x2="73.6115" y2="87.5868" gradientUnits="userSpaceOnUse">
<stop stop-color="#90B0FF"/>
<stop offset="1" stop-color="#5681EC"/>
</linearGradient>
</defs>
</svg>
